<?xml version="1.0" standalone="no"?>
<!DOCTYPE svg PUBLIC "-//W3C//DTD SVG 20010904//EN"
 "http://www.w3.org/TR/2001/REC-SVG-20010904/DTD/svg10.dtd">
<svg version="1.0" xmlns="http://www.w3.org/2000/svg"
 width="1000.000000pt" height="411.000000pt" viewBox="0 0 1000.000000 411.000000"
 preserveAspectRatio="xMidYMid meet">

<g transform="translate(0.000000,411.000000) scale(0.100000,-0.100000)"
fill="#000000" stroke="none">
<path d="M2805 3933 c-191 -17 -440 -93 -662 -202 -374 -184 -601 -388 -794
-712 -34 -57 -72 -121 -85 -141 l-24 -38 -283 -2 -282 -3 -45 -87 c-63 -123
-64 -122 128 -126 l151 -3 -5 -27 c-2 -15 -1 -32 3 -37 14 -18 78 -35 132 -35
49 0 52 -1 45 -22 -11 -36 -41 -100 -483 -1039 -231 -493 -421 -906 -421 -918
0 -11 10 -31 21 -42 18 -18 29 -20 68 -15 25 4 71 9 102 13 57 6 57 6 63 -24
12 -52 47 -73 123 -73 125 0 222 48 283 140 8 12 21 28 27 35 7 8 25 41 39 74
15 34 31 61 35 61 5 0 9 7 9 15 0 9 16 47 35 85 19 39 36 73 37 77 0 5 11 24
24 44 13 20 33 58 45 83 11 25 25 46 29 46 5 0 21 26 35 57 46 97 146 306 168
348 37 73 42 80 55 88 6 4 12 15 12 22 0 8 5 15 10 15 6 0 10 9 10 20 0 11 5
20 10 20 6 0 10 11 10 25 0 14 5 25 10 25 6 0 10 9 10 20 0 11 5 20 10 20 6 0
10 9 10 20 0 11 5 20 10 20 6 0 10 9 10 20 0 11 5 20 10 20 6 0 10 9 10 20 0
11 5 20 10 20 6 0 10 9 10 20 0 11 5 20 10 20 6 0 10 11 10 25 0 14 4 25 8 25
5 0 14 16 22 35 8 19 17 35 22 35 4 0 8 7 8 15 0 8 7 15 15 15 8 0 15 9 15 20
0 11 5 20 10 20 6 0 10 6 10 13 0 18 24 67 33 67 4 0 7 11 7 25 0 14 5 25 10
25 6 0 10 9 10 20 0 11 5 20 10 20 6 0 10 9 10 20 0 11 5 20 10 20 6 0 10 7
10 15 0 8 5 15 10 15 6 0 10 9 10 20 0 11 5 20 10 20 6 0 10 7 10 15 0 8 5 15
10 15 6 0 10 5 10 11 0 11 25 39 35 39 4 0 13 6 20 13 34 29 45 37 55 37 6 0
18 4 28 9 41 23 123 31 301 31 195 0 224 5 266 43 18 16 18 20 4 45 -8 15 -25
28 -37 30 -12 2 -22 7 -22 13 0 5 17 40 38 79 57 107 63 103 -218 113 -129 4
-235 8 -236 10 -5 5 21 77 28 77 5 0 8 8 8 18 0 20 28 83 40 92 4 3 22 34 40
70 18 36 36 67 41 68 5 2 9 13 9 24 0 44 132 198 213 248 16 10 28 22 27 26 0
5 8 10 20 12 11 2 20 8 20 13 0 5 9 9 19 9 11 0 22 4 25 9 3 4 49 11 103 14
96 6 204 -2 313 -23 30 -6 91 -13 136 -16 70 -6 86 -4 124 16 52 26 70 43 70
64 0 8 5 18 10 21 6 3 10 17 10 31 0 13 -4 24 -10 24 -5 0 -10 7 -10 16 0 16
-19 40 -33 41 -25 4 -28 10 -17 37 22 59 -10 120 -81 157 -65 33 -204 45 -354
32z m-290 -300 c-11 -3 -24 -9 -30 -13 -5 -4 -35 -15 -65 -25 -30 -10 -66 -23
-80 -30 -61 -31 -80 -38 -85 -33 -9 9 87 65 140 81 66 21 85 25 115 25 20 0
21 -1 5 -5z"/>
<path d="M6157 3050 c-205 -24 -420 -73 -610 -141 -112 -39 -385 -168 -474
-224 l-43 -26 0 39 c0 33 -7 47 -40 81 -23 23 -38 46 -35 52 13 21 -8 92 -37
125 -43 49 -115 68 -232 61 -166 -9 -331 -80 -581 -246 -142 -95 -150 -99
-156 -78 -14 54 -47 97 -73 97 -13 0 -16 11 -16 51 0 119 -99 179 -296 179
-226 0 -568 -146 -959 -410 -94 -63 -98 -83 -27 -135 72 -53 79 -53 174 3 136
80 350 173 365 158 3 -2 -5 -7 -16 -11 -12 -3 -21 -10 -21 -14 0 -5 -13 -14
-30 -21 -16 -7 -30 -16 -30 -20 0 -3 -12 -13 -27 -21 -16 -8 -48 -34 -72 -58
-40 -40 -42 -45 -27 -57 21 -15 78 -7 89 12 4 8 15 14 24 14 9 0 42 9 72 19
31 11 70 22 86 25 17 3 42 8 58 12 27 6 27 6 14 -22 -23 -52 -61 -122 -306
-564 -133 -239 -244 -447 -247 -461 -11 -48 64 -92 181 -106 44 -5 54 -11 80
-46 39 -52 82 -67 188 -64 91 3 149 26 198 78 15 16 32 29 38 29 6 0 11 7 11
15 0 8 5 15 10 15 6 0 10 9 10 20 0 11 5 20 10 20 6 0 10 9 10 20 0 11 4 20 8
20 5 0 15 12 23 28 8 15 16 29 19 32 3 3 16 25 29 50 14 25 32 52 41 60 8 8
21 28 28 43 13 30 19 38 75 98 20 22 37 45 37 49 0 5 15 25 34 43 18 19 37 43
40 54 6 19 100 123 112 123 10 0 123 125 124 136 0 11 113 114 124 114 3 0 36
20 74 44 38 25 88 51 110 58 23 7 42 16 42 20 0 5 14 8 31 8 17 0 37 6 44 14
14 14 260 32 332 24 l32 -3 -55 -65 c-219 -254 -286 -507 -186 -695 37 -68
118 -146 197 -191 37 -20 77 -47 90 -60 13 -13 33 -24 45 -24 11 0 20 -6 20
-13 0 -25 148 -81 285 -108 87 -17 523 -17 623 1 96 17 211 40 257 51 22 6 58
14 80 19 81 18 95 23 95 30 0 5 29 17 65 29 75 23 156 57 270 112 44 22 86 39
93 39 6 0 12 5 12 10 0 6 7 10 15 10 8 0 15 5 15 10 0 6 6 10 13 10 14 0 39
35 30 44 -4 3 -26 6 -50 6 -32 0 -43 -4 -43 -15 0 -10 -11 -15 -35 -15 -19 0
-35 -4 -35 -10 0 -5 -13 -10 -30 -10 -16 0 -30 -4 -30 -10 0 -5 -13 -10 -30
-10 -16 0 -30 -4 -30 -10 0 -5 -13 -10 -30 -10 -16 0 -30 -4 -30 -10 0 -5 -15
-10 -34 -10 -19 0 -36 -4 -38 -10 -1 -5 -20 -10 -41 -12 -21 -1 -41 -6 -43
-10 -3 -4 -22 -8 -42 -7 -36 0 -34 1 28 25 178 68 417 180 555 261 37 22 51
36 53 56 3 23 -5 32 -53 62 -31 20 -64 37 -73 38 -9 0 -71 -24 -137 -55 -230
-106 -493 -193 -690 -227 -204 -36 -438 -32 -577 10 -74 21 -73 19 -68 109 1
25 5 47 9 50 3 3 13 19 21 35 19 38 45 62 90 82 153 67 164 76 145 113 l-14
27 143 17 c123 14 369 50 486 71 35 7 35 7 10 -9 -14 -8 -32 -18 -40 -22 -113
-50 -140 -68 -114 -78 25 -9 215 -7 254 3 19 5 53 12 75 15 99 13 337 66 345
77 3 4 34 17 70 30 124 42 263 115 318 167 28 27 52 54 52 60 0 5 11 20 24 33
42 43 52 102 34 204 -1 11 -16 32 -31 47 -17 16 -34 48 -42 77 -7 28 -22 63
-34 80 -46 65 -161 118 -319 147 -93 18 -454 26 -565 14z m218 -202 l40 -11
-32 -9 c-18 -5 -33 -14 -33 -21 0 -7 14 -14 33 -15 17 -2 34 -7 35 -12 2 -6
14 -10 27 -10 20 0 23 -4 18 -32 -2 -17 -9 -42 -14 -56 -52 -135 -315 -269
-674 -341 -107 -21 -266 -43 -272 -37 -5 5 110 126 120 126 4 0 15 8 25 18 47
43 175 132 191 132 6 0 11 4 11 9 0 5 16 15 35 22 19 7 35 17 35 21 0 4 9 8
20 8 11 0 20 5 20 10 0 6 7 10 15 10 8 0 15 5 15 10 0 6 11 10 25 10 16 0 25
6 25 15 0 8 9 15 20 15 11 0 20 5 20 10 0 6 9 10 20 10 11 0 20 5 20 10 0 6
11 10 25 10 14 0 25 5 25 10 0 6 8 10 18 10 19 0 42 18 42 32 0 4 -45 8 -100
8 -60 0 -100 -4 -100 -10 0 -5 -24 -10 -54 -10 -30 0 -58 -4 -61 -10 -3 -5
-18 -10 -33 -10 -24 1 -25 2 -9 11 10 6 21 8 24 5 3 -3 11 1 19 8 19 20 167
58 254 65 84 8 146 4 205 -11z"/>
<path d="M8617 3050 c-310 -36 -596 -118 -867 -251 -513 -250 -820 -612 -797
-936 12 -157 105 -280 282 -371 22 -11 50 -30 62 -41 12 -12 27 -21 33 -21 5
0 10 -7 10 -15 0 -8 9 -15 19 -15 11 0 23 -4 26 -10 3 -5 15 -10 26 -10 10 0
19 -3 19 -7 0 -9 115 -45 195 -61 158 -34 549 -20 800 27 121 23 257 61 276
77 8 8 23 14 32 14 9 0 19 5 22 10 3 6 15 10 26 10 10 0 28 4 39 10 11 5 29
14 40 20 11 5 25 10 32 10 18 0 148 63 148 72 0 4 9 8 20 8 11 0 20 5 20 10 0
6 9 10 20 10 11 0 20 5 20 10 0 6 7 10 15 10 8 0 15 5 15 10 0 6 8 10 19 10
12 0 20 9 23 25 5 24 3 25 -43 25 -37 0 -49 -4 -49 -15 0 -9 -9 -15 -25 -15
-14 0 -25 -4 -25 -10 0 -5 -13 -10 -29 -10 -17 0 -33 -4 -36 -10 -3 -5 -22
-10 -41 -10 -19 0 -34 -4 -34 -10 0 -5 -16 -10 -35 -10 -19 0 -35 -4 -35 -10
0 -5 -16 -10 -35 -10 -19 0 -35 -4 -35 -9 0 -8 -20 -13 -110 -26 -19 -3 15 14
75 38 167 66 504 230 553 269 28 24 13 57 -40 91 -29 19 -61 36 -70 40 -10 3
-54 -12 -108 -39 -218 -106 -492 -199 -703 -238 -215 -41 -454 -39 -599 5 -74
21 -73 19 -68 109 1 25 5 47 9 50 3 3 13 19 21 35 17 35 45 62 71 70 11 4 19
11 19 16 0 5 9 9 20 9 11 0 20 5 20 10 0 6 11 10 25 10 14 0 25 5 25 10 0 6 7
10 16 10 8 0 22 6 30 14 16 17 19 46 4 46 -5 0 -10 6 -10 13 0 10 39 18 144
31 135 16 409 56 486 72 32 7 34 6 18 -9 -15 -16 -78 -43 -125 -54 -13 -3 -23
-10 -23 -15 0 -5 -4 -6 -10 -3 -5 3 -10 -3 -10 -15 0 -21 4 -21 113 -19 61 1
128 6 147 10 19 4 69 13 110 19 89 13 293 60 300 70 3 3 25 12 50 19 50 14
294 125 316 144 55 46 94 88 94 101 0 9 5 16 10 16 6 0 10 7 10 15 0 8 5 15
10 15 6 0 10 14 10 30 0 17 5 30 10 30 6 0 10 27 10 61 0 37 -4 58 -10 54 -5
-3 -10 3 -10 14 0 12 -4 21 -10 21 -5 0 -10 7 -10 16 0 9 -8 24 -19 33 -10 9
-22 32 -26 51 -23 112 -139 186 -353 226 -93 18 -454 26 -565 14z m218 -203
c37 -10 38 -11 13 -15 -20 -2 -28 -9 -28 -23 0 -15 7 -19 36 -19 21 0 33 -4
29 -10 -4 -6 5 -10 20 -10 20 0 25 -4 22 -17 -3 -10 -8 -31 -11 -46 -40 -176
-431 -349 -910 -403 l-58 -6 85 85 c46 47 94 88 106 92 11 3 21 10 21 15 0 5
8 11 19 15 10 3 31 17 47 30 16 14 35 25 42 25 6 0 12 5 12 10 0 6 6 10 13 10
6 0 23 9 37 20 14 11 33 20 43 20 9 0 17 5 17 10 0 6 7 10 15 10 8 0 15 5 15
10 0 6 7 10 15 10 8 0 15 5 15 10 0 6 9 10 19 10 10 0 21 7 25 15 3 8 15 15
26 15 11 0 20 5 20 10 0 6 9 10 20 10 11 0 20 5 20 10 0 6 9 10 20 10 11 0 20
5 20 10 0 6 11 10 25 10 19 0 25 5 25 21 0 19 -4 20 -92 15 -51 -3 -120 -7
-153 -10 l-60 -6 34 16 c117 53 323 72 436 41z m-188 -633 c-3 -3 -12 -4 -19
-1 -8 3 -5 6 6 6 11 1 17 -2 13 -5z"/>
</g>
</svg>
